<?xml version="1.0" encoding="utf-8"?><svg xmlns="http://www.w3.org/2000/svg" xmlns:xlink="http://www.w3.org/1999/xlink" width="1536" height="664" preserveAspectRatio="xMidYMid" viewBox="0 0 1536 664" style="z-index:1;margin-right:-2px;display:block;background-repeat-y:initial;background-repeat-x:initial;background-color:rgb(255, 255, 255);animation-play-state:paused" ><g transform="translate(768,332) scale(1,1) translate(-768,-332)" style="transform:matrix(1, 0, 0, 1, 0, 0);animation-play-state:paused" ><linearGradient id="lg-0.047248968605367425" x1="0" x2="1" y1="0" y2="0" style="animation-play-state:paused" ><stop stop-color="#ff00ff" offset="0" style="animation-play-state:paused" ></stop>

  
<stop stop-color="#00ffff" offset="1" style="animation-play-state:paused" ></stop></linearGradient>
<path d="M 0 0 M 0 569.098 Q 153.6 612.595 307.2 607.773 T 614.4 576.125 T 921.6 507.255 T 1228.8 507.225 T 1536 476.773 L 1536 222.426 Q 1382.4 143.095 1228.8 136.906 T 921.6 99.6865 T 614.4 89.3756 T 307.2 85.7306 T 0 50.1097 Z" fill="url(#lg-0.047248968605367425)" opacity="0.4" style="opacity:0.4;animation-play-state:paused" ></path>
<path d="M 0 0 M 0 588.826 Q 153.6 556.826 307.2 554.883 T 614.4 564.191 T 921.6 546.706 T 1228.8 508.238 T 1536 499.924 L 1536 187.441 Q 1382.4 187.412 1228.8 185.083 T 921.6 137.433 T 614.4 150.297 T 307.2 86.2592 T 0 95.4787 Z" fill="url(#lg-0.047248968605367425)" opacity="0.4" style="opacity:0.4;animation-play-state:paused" ></path>
<path d="M 0 0 M 0 588.718 Q 153.6 591.981 307.2 589.303 T 614.4 517.533 T 921.6 515.493 T 1228.8 507.699 T 1536 465.863 L 1536 196.47 Q 1382.4 187.202 1228.8 180.513 T 921.6 143.785 T 614.4 102.304 T 307.2 89.0661 T 0 57.7333 Z" fill="url(#lg-0.047248968605367425)" opacity="0.4" style="opacity:0.4;animation-play-state:paused" ></path>
<path d="M 0 0 M 0 624.909 Q 153.6 581.253 307.2 577.623 T 614.4 533.754 T 921.6 539.033 T 1228.8 492.75 T 1536 486.226 L 1536 198.195 Q 1382.4 181.296 1228.8 178.652 T 921.6 161.109 T 614.4 96.7979 T 307.2 84.1614 T 0 56.9546 Z" fill="url(#lg-0.047248968605367425)" opacity="0.4" style="opacity:0.4;animation-play-state:paused" ></path></g></svg>